<svg width="33" height="33" viewBox="0 0 33 33" fill="none" xmlns="http://www.w3.org/2000/svg">
<path fill-rule="evenodd" clip-rule="evenodd" d="M16.1667 1.83203C8.06649 1.83203 1.5 8.39852 1.5 16.4987C1.5 24.5989 8.06649 31.1654 16.1667 31.1654C24.2668 31.1654 30.8333 24.5989 30.8333 16.4987C30.8333 8.39852 24.2668 1.83203 16.1667 1.83203ZM16.1667 9.83203C16.903 9.83203 17.5 10.429 17.5 11.1654V15.1654H21.5C22.2364 15.1654 22.8333 15.7623 22.8333 16.4987C22.8333 17.2351 22.2364 17.832 21.5 17.832H17.5V21.832C17.5 22.5684 16.903 23.1654 16.1667 23.1654C15.4303 23.1654 14.8333 22.5684 14.8333 21.832V17.832H10.8333C10.097 17.832 9.5 17.2351 9.5 16.4987C9.5 15.7623 10.097 15.1654 10.8333 15.1654H14.8333V11.1654C14.8333 10.429 15.4303 9.83203 16.1667 9.83203Z" fill="currentColor"/>
</svg>
