<svg width="30" height="30" viewBox="0 0 30 30" fill="none" xmlns="http://www.w3.org/2000/svg">
  <path fill-rule="evenodd" clip-rule="evenodd" d="M15 0.648193C6.8998 0.648193 0.333313 7.21468 0.333313 15.3149C0.333313 23.415 6.8998 29.9815 15 29.9815C23.1002 29.9815 29.6666 23.415 29.6666 15.3149C29.6666 7.21468 23.1002 0.648193 15 0.648193ZM15 8.64819C15.7364 8.64819 16.3333 9.24515 16.3333 9.98153V13.9815H20.3333C21.0697 13.9815 21.6666 14.5785 21.6666 15.3149C21.6666 16.0512 21.0697 16.6482 20.3333 16.6482H16.3333V20.6482C16.3333 21.3846 15.7364 21.9815 15 21.9815C14.2636 21.9815 13.6666 21.3846 13.6666 20.6482V16.6482H9.66665C8.93027 16.6482 8.33331 16.0512 8.33331 15.3149C8.33331 14.5785 8.93027 13.9815 9.66665 13.9815H13.6666V9.98153C13.6666 9.24515 14.2636 8.64819 15 8.64819Z"/>
</svg>
