<svg width="22" height="23" viewBox="0 0 22 23" fill="none" xmlns="http://www.w3.org/2000/svg">
  <path fill="currentColor" d="M11.5468 5.33977C11.5468 4.85373 11.1528 4.45972 10.6667 4.45972C10.1807 4.45972 9.78667 4.85373 9.78667 5.33977V10.6201H4.50636C4.02032 10.6201 3.62631 11.0141 3.62631 11.5001C3.62631 11.9862 4.02032 12.3802 4.50636 12.3802H9.78667V17.6605C9.78667 18.1465 10.1807 18.5405 10.6667 18.5405C11.1528 18.5405 11.5468 18.1465 11.5468 17.6605V12.3802H16.8271C17.3131 12.3802 17.7071 11.9862 17.7071 11.5001C17.7071 11.0141 17.3131 10.6201 16.8271 10.6201H11.5468V5.33977Z" />
</svg>
