<svg width="20" height="21" viewBox="0 0 20 21" fill="none" xmlns="http://www.w3.org/2000/svg">
<path fill-rule="evenodd" clip-rule="evenodd" d="M12.7424 1.88502C11.1621 0.538328 8.83788 0.538328 7.25762 1.88502C6.86073 2.22325 6.36725 2.42765 5.84744 2.46913C3.77778 2.63429 2.13429 4.27778 1.96913 6.34744C1.92765 6.86725 1.72325 7.36073 1.38502 7.75762C0.0383278 9.33788 0.0383278 11.6621 1.38502 13.2424C1.72325 13.6393 1.92765 14.1327 1.96913 14.6526C2.13429 16.7222 3.77778 18.3657 5.84744 18.5309C6.36725 18.5724 6.86073 18.7768 7.25762 19.115C8.83788 20.4617 11.1621 20.4617 12.7424 19.115C13.1393 18.7768 13.6327 18.5724 14.1526 18.5309C16.2222 18.3657 17.8657 16.7222 18.0309 14.6526C18.0724 14.1327 18.2768 13.6393 18.615 13.2424C19.9617 11.6621 19.9617 9.33788 18.615 7.75762C18.2768 7.36073 18.0724 6.86725 18.0309 6.34744C17.8657 4.27778 16.2222 2.63429 14.1526 2.46913C13.6327 2.42765 13.1393 2.22325 12.7424 1.88502ZM13.6812 8.93122C14.0229 8.58951 14.0229 8.03549 13.6812 7.69378C13.3395 7.35207 12.7855 7.35207 12.4438 7.69378L9.125 11.0126L7.99372 9.88128C7.65201 9.53957 7.09799 9.53957 6.75628 9.88128C6.41457 10.223 6.41457 10.777 6.75628 11.1187L8.50628 12.8687C8.84799 13.2104 9.40201 13.2104 9.74372 12.8687L13.6812 8.93122Z" fill="currentColor"/>
</svg>
