<svg width="11" height="11" viewBox="0 0 11 11" fill="none" xmlns="http://www.w3.org/2000/svg">
<path d="M10.4679 1.82862C10.749 1.54747 10.749 1.09163 10.4679 0.810474C10.1867 0.529321 9.73089 0.529321 9.44973 0.810474L5.63918 4.62103L1.82862 0.810474C1.54747 0.529321 1.09163 0.529321 0.810474 0.810474C0.529321 1.09163 0.529321 1.54747 0.810474 1.82862L4.62103 5.63918L0.810474 9.44973C0.529321 9.73089 0.529321 10.1867 0.810474 10.4679C1.09163 10.749 1.54747 10.749 1.82862 10.4679L5.63918 6.65732L9.44973 10.4679C9.73089 10.749 10.1867 10.749 10.4679 10.4679C10.749 10.1867 10.749 9.73089 10.4679 9.44973L6.65732 5.63918L10.4679 1.82862Z" fill="currentColor"/>
</svg>
