<svg width="21" height="20" viewBox="0 0 21 20" fill="none" xmlns="http://www.w3.org/2000/svg">
<path d="M9.79436 0.292893C10.1849 -0.0976311 10.818 -0.0976311 11.2086 0.292893L15.2086 4.29289C15.5991 4.68342 15.5991 5.31658 15.2086 5.70711C14.818 6.09763 14.1849 6.09763 13.7944 5.70711L11.5015 3.41421L11.5015 13C11.5015 13.5523 11.0538 14 10.5015 14C9.94918 14 9.50147 13.5523 9.50147 13L9.50146 3.41421L7.20857 5.70711C6.81805 6.09763 6.18488 6.09763 5.79436 5.70711C5.40383 5.31658 5.40383 4.68342 5.79436 4.29289L9.79436 0.292893Z" fill="currentColor"/>
<path d="M1.50147 9C2.05375 9 2.50147 9.44771 2.50147 10V14.2C2.50147 15.0566 2.50224 15.6389 2.53902 16.089C2.57484 16.5274 2.63976 16.7516 2.71945 16.908C2.9112 17.2843 3.21716 17.5903 3.59349 17.782C3.74989 17.8617 3.97409 17.9266 4.4125 17.9624C4.86259 17.9992 5.44489 18 6.30147 18H14.7015C15.558 18 16.1403 17.9992 16.5904 17.9624C17.0288 17.9266 17.253 17.8617 17.4094 17.782C17.7858 17.5903 18.0917 17.2843 18.2835 16.908C18.3632 16.7516 18.4281 16.5274 18.4639 16.089C18.5007 15.6389 18.5015 15.0566 18.5015 14.2V10C18.5015 9.44771 18.9492 9 19.5015 9C20.0537 9 20.5015 9.44771 20.5015 10V14.2413C20.5015 15.0463 20.5015 15.7106 20.4573 16.2518C20.4113 16.8139 20.3128 17.3306 20.0655 17.816C19.682 18.5686 19.0701 19.1805 18.3174 19.564C17.8321 19.8113 17.3154 19.9099 16.7533 19.9558C16.2121 20 15.5477 20 14.7427 20H6.26019C5.45521 20 4.79084 20 4.24964 19.9558C3.68754 19.9099 3.17084 19.8113 2.6855 19.564C1.93286 19.1805 1.32093 18.5686 0.93744 17.816C0.690149 17.3306 0.591585 16.8139 0.54566 16.2518C0.501443 15.7106 0.501453 15.0463 0.501465 14.2413V10C0.501465 9.44771 0.949181 9 1.50147 9Z" fill="currentColor"/>
</svg>
