<svg width="21" height="21" viewBox="0 0 21 21" fill="none" xmlns="http://www.w3.org/2000/svg">
<path d="M17.7188 9.18802V17.063C17.7188 17.4111 17.5805 17.745 17.3343 17.9911C17.0882 18.2372 16.7543 18.3755 16.4062 18.3755H4.59375C4.24565 18.3755 3.91181 18.2372 3.66567 17.9911C3.41953 17.745 3.28125 17.4111 3.28125 17.063V9.18802C3.28125 8.83992 3.41953 8.50608 3.66567 8.25994C3.91181 8.0138 4.24565 7.87552 4.59375 7.87552H6.5625C6.73655 7.87552 6.90347 7.94466 7.02654 8.06773C7.14961 8.1908 7.21875 8.35772 7.21875 8.53177C7.21875 8.70581 7.14961 8.87273 7.02654 8.9958C6.90347 9.11888 6.73655 9.18802 6.5625 9.18802H4.59375V17.063H16.4062V9.18802H14.4375C14.2635 9.18802 14.0965 9.11888 13.9735 8.9958C13.8504 8.87273 13.7812 8.70581 13.7812 8.53177C13.7812 8.35772 13.8504 8.1908 13.9735 8.06773C14.0965 7.94466 14.2635 7.87552 14.4375 7.87552H16.4062C16.7543 7.87552 17.0882 8.0138 17.3343 8.25994C17.5805 8.50608 17.7188 8.83992 17.7188 9.18802ZM7.68305 5.71481L9.84375 3.55329V11.1568C9.84375 11.3308 9.91289 11.4977 10.036 11.6208C10.159 11.7439 10.326 11.813 10.5 11.813C10.674 11.813 10.841 11.7439 10.964 11.6208C11.0871 11.4977 11.1562 11.3308 11.1562 11.1568V3.55329L13.317 5.71481C13.4401 5.83795 13.6071 5.90713 13.7812 5.90713C13.9554 5.90713 14.1224 5.83795 14.2455 5.71481C14.3687 5.59167 14.4379 5.42466 14.4379 5.25052C14.4379 5.07637 14.3687 4.90936 14.2455 4.78622L10.9643 1.50497C10.9033 1.44395 10.831 1.39555 10.7513 1.36252C10.6716 1.3295 10.5862 1.3125 10.5 1.3125C10.4138 1.3125 10.3284 1.3295 10.2487 1.36252C10.169 1.39555 10.0967 1.44395 10.0357 1.50497L6.75445 4.78622C6.63131 4.90936 6.56214 5.07637 6.56214 5.25052C6.56214 5.42466 6.63131 5.59167 6.75445 5.71481C6.87759 5.83795 7.04461 5.90713 7.21875 5.90713C7.3929 5.90713 7.55991 5.83795 7.68305 5.71481Z" fill="currentColor"/>
</svg>
