<svg width="19" height="18" viewBox="0 0 19 18" fill="none" xmlns="http://www.w3.org/2000/svg">
<path d="M10.0649 0.553554C9.70758 0.38319 9.29246 0.38319 8.93515 0.553554C8.62626 0.700829 8.45596 0.956537 8.37007 1.09682C8.28129 1.24184 8.19014 1.42658 8.10131 1.60664L6.21504 5.42802L1.99575 6.04472C1.79713 6.07371 1.59333 6.10346 1.42803 6.14321C1.26812 6.18166 0.972447 6.26483 0.73715 6.51319C0.464945 6.80051 0.336931 7.19533 0.388749 7.58771C0.433541 7.92689 0.624154 8.16773 0.73108 8.2927C0.841607 8.42189 0.989176 8.56556 1.13299 8.70559L4.18481 11.6781L3.46472 15.8765C3.43073 16.0745 3.39585 16.2776 3.38243 16.4471C3.36944 16.6111 3.35689 16.9182 3.52025 17.2189C3.70922 17.5668 4.04511 17.8108 4.43437 17.883C4.7709 17.9454 5.05902 17.8385 5.21095 17.7755C5.36806 17.7103 5.55043 17.6143 5.72819 17.5208L9.50002 15.5372L13.2719 17.5208C13.4496 17.6143 13.632 17.7103 13.7891 17.7755C13.941 17.8385 14.2291 17.9454 14.5657 17.883C14.9549 17.8108 15.2908 17.5668 15.4798 17.2189C15.6432 16.9182 15.6306 16.6111 15.6176 16.4471C15.6042 16.2776 15.5693 16.0745 15.5353 15.8766L14.8152 11.6781L17.8671 8.70555C18.0109 8.56554 18.1584 8.42188 18.269 8.2927C18.3759 8.16773 18.5665 7.92689 18.6113 7.58771C18.6631 7.19533 18.5351 6.80051 18.2629 6.51319C18.0276 6.26483 17.7319 6.18166 17.572 6.14321C17.4067 6.10346 17.2029 6.07371 17.0043 6.04472L12.785 5.42802L10.8988 1.60671C10.8099 1.42663 10.7188 1.24185 10.63 1.09682C10.5441 0.956537 10.3738 0.700829 10.0649 0.553554Z" fill="currentColor"/>
</svg>
