<svg width="22" height="23" viewBox="0 0 22 23" fill="none" xmlns="http://www.w3.org/2000/svg">
<path fill-rule="evenodd" clip-rule="evenodd" d="M4.34428 2.16675H11.4827C11.7071 2.16672 11.9255 2.1667 12.1106 2.18182C12.3138 2.19842 12.5535 2.23759 12.7948 2.36052C13.1293 2.53096 13.4013 2.80293 13.5717 3.13744C13.6946 3.3787 13.7338 3.61847 13.7504 3.82166C13.7655 4.00669 13.7655 4.22516 13.7655 4.44949V5.9198L18.2648 5.91979C18.438 5.91975 18.6234 5.9197 18.7789 5.93396C18.9395 5.94868 19.213 5.98761 19.4675 6.17057C19.7718 6.38938 19.97 6.72617 20.0135 7.09845C20.0498 7.40976 19.951 7.66779 19.8859 7.81527C19.8229 7.95813 19.7328 8.12023 19.6486 8.27166L18.3763 10.5618L19.6486 12.8519C19.7328 13.0033 19.8229 13.1654 19.8859 13.3083C19.951 13.4558 20.0498 13.7138 20.0135 14.0251C19.97 14.3974 19.7718 14.7342 19.4675 14.953C19.213 15.1359 18.9395 15.1749 18.7789 15.1896C18.6235 15.2038 18.438 15.2038 18.2648 15.2038L11.4557 15.2037C11.2313 15.2038 11.0128 15.2038 10.8278 15.1887C10.6246 15.1721 10.3848 15.1329 10.1436 15.01C9.80905 14.8395 9.53708 14.5676 9.36664 14.2331C9.24371 13.9918 9.20454 13.752 9.18794 13.5488C9.17282 13.3638 9.17285 13.1453 9.17287 12.921L9.17288 11.4507L5.57061 11.4507L7.64016 19.7289C7.75923 20.2052 7.46966 20.6878 6.9934 20.8068C6.51714 20.9259 6.03453 20.6363 5.91546 20.1601L2.12706 5.00654C2.05862 4.73292 1.99384 4.47393 1.95912 4.25426C1.92202 4.01951 1.90031 3.72771 1.99553 3.41959C2.12404 3.00379 2.4006 2.64958 2.77281 2.42406C3.04864 2.25694 3.33699 2.20724 3.57373 2.18629C3.79526 2.16669 4.06223 2.16672 4.34428 2.16675Z" fill="white"/>
</svg>
