<svg width="25" height="24" viewBox="0 0 25 24" fill="none" xmlns="http://www.w3.org/2000/svg">
<path fill-rule="evenodd" clip-rule="evenodd" d="M12.7138 0.00195312C5.96014 0.00195312 0.500488 5.50178 0.500488 12.3058C0.500488 17.7447 3.99867 22.3485 8.85158 23.978C9.45832 24.1005 9.68056 23.7132 9.68056 23.3875C9.68056 23.1022 9.66057 22.1245 9.66057 21.1058C6.26313 21.8393 5.55564 19.6391 5.55564 19.6391C5.00965 18.2131 4.20067 17.8467 4.20067 17.8467C3.08869 17.0929 4.28167 17.0929 4.28167 17.0929C5.51514 17.1744 6.16238 18.3559 6.16238 18.3559C7.25411 20.2298 9.01333 19.7003 9.72106 19.3744C9.82206 18.5799 10.1458 18.0299 10.4895 17.7244C7.77985 17.4392 4.92891 16.3799 4.92891 11.6538C4.92891 10.3094 5.4139 9.20942 6.18238 8.35395C6.06113 8.04846 5.63639 6.78524 6.30388 5.09455C6.30388 5.09455 7.33511 4.76856 9.66032 6.35751C10.6558 6.08818 11.6825 5.95117 12.7138 5.95002C13.745 5.95002 14.7962 6.09277 15.767 6.35751C18.0924 4.76856 19.1236 5.09455 19.1236 5.09455C19.7911 6.78524 19.3661 8.04846 19.2449 8.35395C20.0336 9.20942 20.4986 10.3094 20.4986 11.6538C20.4986 16.3799 17.6477 17.4187 14.9177 17.7244C15.3627 18.1114 15.7467 18.8446 15.7467 20.0058C15.7467 21.6558 15.7267 22.98 15.7267 23.3872C15.7267 23.7132 15.9492 24.1005 16.5557 23.9782C21.4086 22.3483 24.9068 17.7447 24.9068 12.3058C24.9268 5.50178 19.4471 0.00195312 12.7138 0.00195312Z" fill="currentColor"/>
</svg>
