<svg width="12" height="12" viewBox="0 0 12 12" fill="none" xmlns="http://www.w3.org/2000/svg">
<path fill-rule="evenodd" clip-rule="evenodd" d="M6.67312 12H5.35219L5.84579 9.25619H6.18768C6.88888 9.25619 7.44485 8.79324 7.55273 8.19358C7.6606 7.59391 7.27474 7.11338 6.57354 7.11338H6.23127L6.6784 4.62786C7.29659 4.61672 7.77812 4.20924 7.87359 3.6846C7.96911 3.15974 7.63248 2.75216 7.01778 2.74134L7.51093 0H8.43234C11.0421 0 12.2564 1.42267 11.9549 3.10254C11.7046 4.49137 10.7738 5.27919 10.0228 5.65686C10.6715 5.94789 11.771 6.83994 11.4722 8.50221C11.1168 10.4731 9.30088 12 6.67312 12ZM2.16168 0H5.20789L3.04915 12H0L2.16168 0Z" fill="currentColor"/>
</svg>
