<svg width="25" height="25" viewBox="0 0 25 25" fill="none" xmlns="http://www.w3.org/2000/svg">
  <path opacity="0.12" d="M7.5 15.1C7.5 14.5399 7.5 14.2599 7.60899 14.046C7.70487 13.8578 7.85785 13.7049 8.04601 13.609C8.25992 13.5 8.53995 13.5 9.1 13.5H15.9C16.4601 13.5 16.7401 13.5 16.954 13.609C17.1422 13.7049 17.2951 13.8578 17.391 14.046C17.5 14.2599 17.5 14.5399 17.5 15.1V21.5H7.5V15.1Z" fill="black"/>
  <path d="M15.5 8.5H9.1C8.53995 8.5 8.25992 8.5 8.04601 8.39101C7.85785 8.29513 7.70487 8.14215 7.60899 7.95399C7.5 7.74008 7.5 7.46005 7.5 6.9V3.5M17.5 21.5V15.1C17.5 14.5399 17.5 14.2599 17.391 14.046C17.2951 13.8578 17.1422 13.7049 16.954 13.609C16.7401 13.5 16.4601 13.5 15.9 13.5H9.1C8.53995 13.5 8.25992 13.5 8.04601 13.609C7.85785 13.7049 7.70487 13.8578 7.60899 14.046C7.5 14.2599 7.5 14.5399 7.5 15.1V21.5M21.5 9.82548V16.7C21.5 18.3802 21.5 19.2202 21.173 19.862C20.8854 20.4265 20.4265 20.8854 19.862 21.173C19.2202 21.5 18.3802 21.5 16.7 21.5H8.3C6.61984 21.5 5.77976 21.5 5.13803 21.173C4.57354 20.8854 4.1146 20.4265 3.82698 19.862C3.5 19.2202 3.5 18.3802 3.5 16.7V8.3C3.5 6.61984 3.5 5.77976 3.82698 5.13803C4.1146 4.57354 4.57354 4.1146 5.13803 3.82698C5.77976 3.5 6.61984 3.5 8.3 3.5H15.1745C15.6637 3.5 15.9083 3.5 16.1385 3.55526C16.3425 3.60425 16.5376 3.68506 16.7166 3.79472C16.9184 3.9184 17.0914 4.09135 17.4373 4.43726L20.5627 7.56274C20.9086 7.90865 21.0816 8.0816 21.2053 8.28343C21.3149 8.46237 21.3957 8.65746 21.4447 8.86154C21.5 9.09171 21.5 9.3363 21.5 9.82548Z" stroke="black" stroke-width="2" stroke-linecap="round" stroke-linejoin="round"/>
</svg>
