<svg width="12" height="11" viewBox="0 0 12 11" fill="none" xmlns="http://www.w3.org/2000/svg">
<path d="M11.3535 10.1466C11.4 10.1931 11.4368 10.2482 11.462 10.3089C11.4871 10.3696 11.5001 10.4347 11.5001 10.5004C11.5001 10.5661 11.4871 10.6311 11.462 10.6918C11.4368 10.7525 11.4 10.8077 11.3535 10.8541C11.3071 10.9006 11.2519 10.9374 11.1912 10.9626C11.1305 10.9877 11.0655 11.0007 10.9998 11.0007C10.9341 11.0007 10.869 10.9877 10.8083 10.9626C10.7476 10.9374 10.6925 10.9006 10.646 10.8541L5.99979 6.20727L1.35354 10.8541C1.25972 10.948 1.13247 11.0007 0.99979 11.0007C0.867108 11.0007 0.73986 10.948 0.64604 10.8541C0.552219 10.7603 0.499512 10.6331 0.499512 10.5004C0.499512 10.3677 0.552219 10.2405 0.64604 10.1466L5.64604 5.14664C5.69248 5.10015 5.74762 5.06328 5.80832 5.03811C5.86902 5.01295 5.93408 5 5.99979 5C6.0655 5 6.13056 5.01295 6.19126 5.03811C6.25196 5.06328 6.3071 5.10015 6.35354 5.14664L11.3535 10.1466ZM1.35354 5.85414L5.99979 1.20727L10.646 5.85414C10.6925 5.9006 10.7476 5.93745 10.8083 5.96259C10.869 5.98773 10.9341 6.00067 10.9998 6.00067C11.0655 6.00067 11.1305 5.98773 11.1912 5.96259C11.2519 5.93745 11.3071 5.9006 11.3535 5.85414C11.4 5.80769 11.4368 5.75254 11.462 5.69184C11.4871 5.63115 11.5001 5.56609 11.5001 5.50039C11.5001 5.4347 11.4871 5.36964 11.462 5.30895C11.4368 5.24825 11.4 5.1931 11.3535 5.14664L6.35354 0.146643C6.3071 0.100155 6.25196 0.0632756 6.19126 0.0381135C6.13056 0.0129513 6.0655 0 5.99979 0C5.93408 0 5.86902 0.0129513 5.80832 0.0381135C5.74762 0.0632756 5.69248 0.100155 5.64604 0.146643L0.64604 5.14664C0.552219 5.24046 0.499512 5.36771 0.499512 5.50039C0.499512 5.63308 0.552219 5.76032 0.64604 5.85414C0.73986 5.94796 0.867108 6.00067 0.99979 6.00067C1.13247 6.00067 1.25972 5.94796 1.35354 5.85414Z" fill="currentColor"/>
</svg>
