<svg width="12" height="6" viewBox="0 0 12 6" fill="none" xmlns="http://www.w3.org/2000/svg">
<path d="M12 5C12 5.13261 11.9473 5.25979 11.8536 5.35355C11.7598 5.44732 11.6326 5.5 11.5 5.5H0.5C0.367392 5.5 0.240215 5.44732 0.146447 5.35355C0.0526785 5.25979 0 5.13261 0 5C0 4.86739 0.0526785 4.74021 0.146447 4.64645C0.240215 4.55268 0.367392 4.5 0.5 4.5H11.5C11.6326 4.5 11.7598 4.55268 11.8536 4.64645C11.9473 4.74021 12 4.86739 12 5ZM0.5 1.5H11.5C11.6326 1.5 11.7598 1.44732 11.8536 1.35355C11.9473 1.25979 12 1.13261 12 1C12 0.867392 11.9473 0.740215 11.8536 0.646447C11.7598 0.552679 11.6326 0.5 11.5 0.5H0.5C0.367392 0.5 0.240215 0.552679 0.146447 0.646447C0.0526785 0.740215 0 0.867392 0 1C0 1.13261 0.0526785 1.25979 0.146447 1.35355C0.240215 1.44732 0.367392 1.5 0.5 1.5Z" fill="currentColor"/>
</svg>
