<svg width="16" height="16" viewBox="0 0 16 16" fill="none" xmlns="http://www.w3.org/2000/svg">
<path d="M4.81903 0.5H6.5C6.91421 0.5 7.25 0.835787 7.25 1.25C7.25 1.66421 6.91421 2 6.5 2H4.85C4.20757 2 3.77085 2.00058 3.43328 2.02816C3.10447 2.05503 2.93632 2.10372 2.81902 2.16349C2.53677 2.3073 2.3073 2.53677 2.16349 2.81902C2.10372 2.93632 2.05503 3.10447 2.02816 3.43328C2.00058 3.77085 2 4.20757 2 4.85V11.15C2 11.7924 2.00058 12.2292 2.02816 12.5667C2.05503 12.8955 2.10372 13.0637 2.16349 13.181C2.3073 13.4632 2.53677 13.6927 2.81902 13.8365C2.93632 13.8963 3.10447 13.945 3.43328 13.9718C3.77085 13.9994 4.20757 14 4.85 14H11.15C11.7924 14 12.2292 13.9994 12.5667 13.9718C12.8955 13.945 13.0637 13.8963 13.181 13.8365C13.4632 13.6927 13.6927 13.4632 13.8365 13.181C13.8963 13.0637 13.945 12.8955 13.9718 12.5667C13.9994 12.2292 14 11.7924 14 11.15V9.5C14 9.08579 14.3358 8.75 14.75 8.75C15.1642 8.75 15.5 9.08579 15.5 9.5V11.181C15.5 11.7847 15.5 12.283 15.4669 12.6889C15.4324 13.1104 15.3585 13.498 15.173 13.862C14.8854 14.4265 14.4265 14.8854 13.862 15.173C13.498 15.3585 13.1104 15.4324 12.6889 15.4669C12.283 15.5 11.7847 15.5 11.181 15.5H4.81901C4.21529 15.5 3.71702 15.5 3.31113 15.4669C2.88956 15.4324 2.50203 15.3585 2.13803 15.173C1.57354 14.8854 1.1146 14.4265 0.826981 13.862C0.641513 13.498 0.56759 13.1104 0.533146 12.6889C0.499983 12.283 0.499991 11.7847 0.5 11.181V4.81903C0.499991 4.2153 0.499983 3.71703 0.533146 3.31113C0.56759 2.88956 0.641513 2.50203 0.826981 2.13803C1.1146 1.57354 1.57354 1.1146 2.13803 0.826981C2.50203 0.641513 2.88956 0.56759 3.31113 0.533146C3.71702 0.499983 4.2153 0.499991 4.81903 0.5Z" fill="currentColor"/>
<path d="M12.9393 4.25L11.9697 5.21967C11.6768 5.51256 11.6768 5.98744 11.9697 6.28033C12.2626 6.57322 12.7374 6.57322 13.0303 6.28033L15.2803 4.03033C15.5732 3.73744 15.5732 3.26256 15.2803 2.96967L13.0303 0.71967C12.7374 0.426777 12.2626 0.426777 11.9697 0.71967C11.6768 1.01256 11.6768 1.48744 11.9697 1.78033L12.9393 2.75L12.319 2.75C11.7153 2.74999 11.217 2.74998 10.8111 2.78315C10.3896 2.81759 10.002 2.89151 9.63803 3.07698C9.07354 3.3646 8.6146 3.82354 8.32698 4.38803C8.14151 4.75203 8.06759 5.13956 8.03315 5.56113C7.99998 5.96702 7.99999 6.46529 8 7.069L8 8C8 8.41421 8.33579 8.75 8.75 8.75C9.16421 8.75 9.5 8.41421 9.5 8V7.1C9.5 6.45757 9.50058 6.02085 9.52816 5.68328C9.55503 5.35447 9.60372 5.18632 9.66349 5.06902C9.8073 4.78677 10.0368 4.5573 10.319 4.41349C10.4363 4.35372 10.6045 4.30503 10.9333 4.27816C11.2708 4.25058 11.7076 4.25 12.35 4.25H12.9393Z" fill="currentColor"/>
</svg>
