<svg width="18" height="19" viewBox="0 0 18 19" fill="none" xmlns="http://www.w3.org/2000/svg">
<path d="M5.07402 0.75H7.03516C7.51841 0.75 7.91016 1.14175 7.91016 1.625C7.91016 2.10825 7.51841 2.5 7.03516 2.5H5.11016C4.36065 2.5 3.85114 2.50068 3.45732 2.53286C3.0737 2.5642 2.87752 2.62101 2.74067 2.69074C2.41139 2.85852 2.14367 3.12623 1.9759 3.45552C1.90617 3.59237 1.84936 3.78855 1.81801 4.17216C1.78584 4.56599 1.78516 5.07549 1.78516 5.825V13.175C1.78516 13.9245 1.78584 14.434 1.81801 14.8278C1.84936 15.2115 1.90617 15.4076 1.9759 15.5445C2.14367 15.8738 2.41139 16.1415 2.74067 16.3093C2.87752 16.379 3.0737 16.4358 3.45732 16.4671C3.85114 16.4993 4.36065 16.5 5.11016 16.5H12.4602C13.2097 16.5 13.7192 16.4993 14.113 16.4671C14.4966 16.4358 14.6928 16.379 14.8296 16.3093C15.1589 16.1415 15.4266 15.8738 15.5944 15.5445C15.6641 15.4076 15.721 15.2115 15.7523 14.8278C15.7845 14.434 15.7852 13.9245 15.7852 13.175V11.25C15.7852 10.7668 16.1769 10.375 16.6602 10.375C17.1434 10.375 17.5352 10.7668 17.5352 11.25V13.2112C17.5352 13.9155 17.5352 14.4968 17.4965 14.9703C17.4563 15.4622 17.3701 15.9143 17.1537 16.339C16.8181 16.9975 16.2827 17.533 15.6241 17.8685C15.1995 18.0849 14.7473 18.1711 14.2555 18.2113C13.782 18.25 13.2007 18.25 12.4963 18.25H5.074C4.36966 18.25 3.78835 18.25 3.31481 18.2113C2.82297 18.1711 2.37086 18.0849 1.94619 17.8685C1.28762 17.533 0.752191 16.9975 0.416635 16.339C0.200255 15.9143 0.114011 15.4622 0.0738268 14.9703C0.0351369 14.4968 0.0351458 13.9155 0.0351566 13.2111V5.78886C0.0351458 5.08452 0.0351369 4.5032 0.0738268 4.02965C0.114011 3.53782 0.200255 3.0857 0.416635 2.66103C0.752191 2.00247 1.28762 1.46704 1.94619 1.13148C2.37086 0.915099 2.82297 0.828855 3.31481 0.788671C3.78835 0.749981 4.36968 0.74999 5.07402 0.75Z" fill="currentColor"/>
<path d="M14.5477 5.125L13.4164 6.25628C13.0747 6.59799 13.0747 7.15201 13.4164 7.49372C13.7581 7.83543 14.3122 7.83543 14.6539 7.49372L17.2789 4.86872C17.6206 4.52701 17.6206 3.97299 17.2789 3.63128L14.6539 1.00628C14.3122 0.664573 13.7581 0.664573 13.4164 1.00628C13.0747 1.34799 13.0747 1.90201 13.4164 2.24372L14.5477 3.375L13.824 3.375C13.1197 3.37499 12.5384 3.37498 12.0648 3.41367C11.573 3.45386 11.1209 3.5401 10.6962 3.75648C10.0376 4.09204 9.50219 4.62747 9.16663 5.28603C8.95026 5.7107 8.86401 6.16282 8.82383 6.65465C8.78514 7.12819 8.78515 7.7095 8.78516 8.41384L8.78516 9.5C8.78516 9.98325 9.17691 10.375 9.66016 10.375C10.1434 10.375 10.5352 9.98325 10.5352 9.5V8.45C10.5352 7.70049 10.5358 7.19099 10.568 6.79716C10.5994 6.41355 10.6562 6.21737 10.7259 6.08052C10.8937 5.75123 11.1614 5.48352 11.4907 5.31574C11.6275 5.24601 11.8237 5.1892 12.2073 5.15786C12.6011 5.12568 13.1106 5.125 13.8602 5.125H14.5477Z" fill="currentColor"/>
</svg>
