<svg width="15" height="19" viewBox="0 0 15 19" fill="none" xmlns="http://www.w3.org/2000/svg">
<path d="M1.375 3.36509C1.375 2.51532 1.375 2.09044 1.55218 1.85623C1.70653 1.65219 1.94246 1.52592 2.19785 1.51067C2.49101 1.49317 2.84453 1.72885 3.55158 2.20022L12.7527 8.3343C13.3369 8.72378 13.629 8.91852 13.7308 9.16398C13.8198 9.37858 13.8198 9.61976 13.7308 9.83435C13.629 10.0798 13.3369 10.2746 12.7527 10.664L3.55158 16.7981C2.84453 17.2695 2.49101 17.5052 2.19785 17.4877C1.94246 17.4724 1.70653 17.3461 1.55218 17.1421C1.375 16.9079 1.375 16.483 1.375 15.6332V3.36509Z" stroke="currentColor" stroke-width="1.86364" stroke-linecap="round" stroke-linejoin="round"/>
</svg>
