<svg width="358" height="78" viewBox="0 0 358 78" fill="none" xmlns="http://www.w3.org/2000/svg">
<path d="M2.45038 11.4102H15.2723V35.3836H38.5685V45H2.45038V11.4102ZM63.3094 34.5709V33.5325L55.1828 34.9772C53.0609 35.3384 52.2031 35.835 52.2031 37.054V37.0992C52.2031 38.2279 53.0157 39.5823 56.0406 39.5823C60.5554 39.5823 63.3094 37.0992 63.3094 34.5709ZM63.5351 41.7494C62.3613 42.9232 59.2461 45.4515 52.1579 45.4515H51.6613C43.5347 45.4515 40.4195 41.6139 40.4195 37.6409V37.0992C40.4195 33.0359 43.0381 30.6431 50.2617 30.0561L61.955 29.0177C62.9933 28.8823 63.3094 28.5211 63.3094 27.8439C63.3094 26.9409 62.8128 25.9928 58.0271 25.9928H57.8465C52.6545 25.9928 52.5191 27.7085 52.3837 28.476H41.0065V28.2051C41.0065 24.9545 41.9997 20.0785 56.5824 20.0785H59.1107C74.2803 20.0785 75.3187 24.5933 75.3187 27.889V36.8734C75.3187 37.5506 75.4992 37.9118 76.3571 37.9118H77.6663V45H67.463C65.341 45 63.8963 43.8713 63.5351 41.7494ZM79.7749 45V20.7106H91.9647V24.9996C93.1837 23.8709 96.931 20.1688 104.516 20.1688H104.787C113.861 20.1688 116.706 25.5414 116.706 29.3789V45H104.38V33.3971C104.38 30.1464 102.71 27.7988 98.5111 27.7988C94.3576 27.7988 92.055 30.2819 92.055 33.7131V45H79.7749ZM146.479 32.8553V32.6295C146.479 29.9207 143.996 27.0312 138.849 27.0312H138.623C133.296 27.0312 131.806 29.9207 131.806 32.6295V32.8553C131.806 35.519 133.612 38.589 138.668 38.589H138.849C144.086 38.589 146.479 35.5641 146.479 32.8553ZM146.479 11.4102H158.759V45H146.524V41.4785C145.711 42.3814 142.415 45.4515 134.831 45.4515H134.063C123.453 45.4515 119.345 39.6274 119.345 33.1713V32.2232C119.345 26.038 123.137 20.2591 133.702 20.2591H134.56C142.054 20.2591 145.35 22.9228 146.479 23.7806V11.4102ZM179.827 45.6772H177.343C162.716 45.6772 161.135 40.2144 161.135 37.054V36.738H173.641C173.641 37.6409 174.093 39.7177 178.653 39.7177H178.743C183.077 39.7177 183.754 38.7245 183.754 37.6861V37.5958C183.754 36.4219 183.122 35.7447 179.104 35.6093L173.957 35.4738C163.709 35.1127 161.406 31.4557 161.406 27.8439V27.573C161.406 23.6 163.935 20.0334 177.343 20.0334H179.736C192.784 20.0334 195.673 23.7355 195.673 27.573V27.889H183.393C183.258 27.0764 182.942 25.6317 178.517 25.6317H178.472C174.499 25.6317 173.732 26.2186 173.732 27.3021V27.3473C173.732 28.2954 174.499 29.0177 178.246 29.1532L183.348 29.2886C194.319 29.6498 196.576 32.1781 196.576 37.0089V37.3249C196.576 41.7945 194.093 45.6772 179.827 45.6772ZM218.764 45.6772H216.055C200.48 45.6772 198.177 38.1827 198.177 33.1262V32.3135C198.177 27.3021 200.434 20.0334 216.01 20.0334H218.809C235.017 20.0334 236.688 27.5279 236.688 30.8688V31.0042H224.137C224.001 30.1013 223.189 26.8055 217.41 26.8055H217.229C211.992 26.8055 210.638 29.695 210.638 32.449V32.6747C210.638 35.6093 212.082 38.8148 217.229 38.8148H217.41C223.144 38.8148 224.001 35.3836 224.137 34.4355H236.688V34.5257C236.688 37.8215 235.379 45.6772 218.764 45.6772ZM260.874 34.5709V33.5325L252.748 34.9772C250.626 35.3384 249.768 35.835 249.768 37.054V37.0992C249.768 38.2279 250.581 39.5823 253.606 39.5823C258.12 39.5823 260.874 37.0992 260.874 34.5709ZM261.1 41.7494C259.926 42.9232 256.811 45.4515 249.723 45.4515H249.226C241.1 45.4515 237.984 41.6139 237.984 37.6409V37.0992C237.984 33.0359 240.603 30.6431 247.827 30.0561L259.52 29.0177C260.558 28.8823 260.874 28.5211 260.874 27.8439C260.874 26.9409 260.378 25.9928 255.592 25.9928H255.411C250.22 25.9928 250.084 27.7085 249.949 28.476H238.571V28.2051C238.571 24.9545 239.565 20.0785 254.147 20.0785H256.676C271.845 20.0785 272.884 24.5933 272.884 27.889V36.8734C272.884 37.5506 273.064 37.9118 273.922 37.9118H275.231V45H265.028C262.906 45 261.461 43.8713 261.1 41.7494ZM289.62 32.7198V32.9004C289.62 35.6093 291.877 38.6793 297.16 38.6793H297.385C302.848 38.6793 304.338 35.519 304.338 32.9004V32.7198C304.338 29.9207 302.848 26.9861 297.385 26.9861H297.16C291.787 26.9861 289.62 29.8755 289.62 32.7198ZM277.34 20.7106H289.62V24.0966C290.568 23.2388 294.315 20.2591 301.449 20.2591H302.397C313.548 20.2591 316.799 26.038 316.799 32.1329V33.081C316.799 39.0857 313.323 45.4515 302.036 45.4515H301.178C294.27 45.4515 290.478 42.7878 289.62 42.0203V53.4878H277.34V20.7106ZM337.685 25.9928C333.035 25.9928 331.274 27.4827 330.687 29.6498H344.683C344.186 27.3473 342.335 25.9928 337.685 25.9928ZM356.873 36.1511V36.2414C356.873 39.6274 354.796 45.6772 338.949 45.6772H336.556C321.612 45.6772 318.497 38.8599 318.497 33.1713V32.2684C318.497 26.6701 321.387 20.0334 336.421 20.0334H338.904C354.751 20.0334 356.963 27.4376 356.963 33.2616V34.616H330.552C330.913 37.1443 332.99 39.0857 337.911 39.0857H337.956C343.78 39.0857 344.683 36.6928 344.773 36.1511H356.873Z" fill="white"/>
<path d="M241.93 64.4378H245.614V68.2167C245.912 68 247.009 67.0925 249.149 67.0925H249.433C252.738 67.0925 253.767 68.8126 253.767 70.6953V70.9797C253.767 72.8488 252.616 74.6502 249.298 74.6502H249.027C246.995 74.6502 245.871 73.7969 245.546 73.5531C245.451 73.8105 245.397 74.2033 245.356 74.5148H241.93V64.4378ZM245.614 70.8307V70.8849C245.614 71.7111 246.345 72.6186 247.821 72.6186H247.903C249.542 72.6186 250.029 71.6976 250.029 70.8849V70.8307C250.029 69.9639 249.542 69.0971 247.903 69.0971H247.821C246.304 69.0971 245.614 69.9639 245.614 70.8307ZM255.129 77.0611V74.8127H256.781C257.052 74.8127 257.12 74.7044 257.12 74.5825V74.5689C257.12 74.42 257.011 74.2168 256.808 73.8376L253.368 67.2279H257.296L259.327 71.9143L261.21 67.2279H264.867L261.359 74.8263C260.655 76.3568 259.869 77.0611 258.555 77.0611H255.129ZM269.484 74.5148V64.4378H278.965C281.904 64.4378 282.689 65.5755 282.689 66.7268V66.8758C282.689 68.1354 281.619 68.7043 280.956 68.8533C281.85 69.07 283.272 69.6659 283.272 71.4402V71.6027C283.272 73.1874 282.31 74.5148 279.019 74.5148H269.484ZM277.8 66.7268H273.33V68.149H277.8C278.599 68.149 278.829 67.8239 278.829 67.4447V67.4176C278.829 67.0248 278.599 66.7268 277.8 66.7268ZM278.044 70.4109H273.33V72.1445H278.044C279.046 72.1445 279.236 71.6705 279.236 71.2777V71.2371C279.236 70.8036 279.032 70.4109 278.044 70.4109ZM287.933 66.8893V68.623H292.348C293.201 68.623 293.513 68.2438 293.513 67.7562V67.7426C293.513 67.2686 293.215 66.8893 292.348 66.8893H287.933ZM287.933 71.061V74.5148H284.086V64.4378H293.242C296.181 64.4378 297.481 65.3859 297.481 67.0248V67.1738C297.481 68.6365 296.208 69.246 295.45 69.4221C296.696 69.7065 297.522 70.5192 297.522 71.8195V73.3093C297.522 74.0136 297.617 74.271 297.712 74.447V74.5148H293.784C293.689 74.4064 293.662 74.271 293.662 73.9865V72.8082C293.662 71.6569 293.134 71.061 291.617 71.061H287.933ZM307.045 70.3702L305.352 66.9029L303.699 70.3702H307.045ZM309.063 74.5148L308.277 72.8895H302.521L301.749 74.5148H297.848L302.832 64.4378H308.006L313.275 74.5148H309.063ZM313.714 64.4378H318.021L323.872 70.1671V64.4378H327.692V74.5148H323.845L317.534 68.4063V74.5148H313.714V64.4378ZM328.991 74.5148V64.4378H336.143C341.953 64.4378 343.416 66.8352 343.416 69.2054V69.6117C343.416 71.9007 342.156 74.5148 336.156 74.5148H328.991ZM332.838 67.079V71.8465H335.696C339.055 71.8465 339.42 70.3702 339.42 69.4898V69.4086C339.42 68.5282 339.055 67.079 335.696 67.079H332.838ZM350.876 74.7044H350.226C344.456 74.7044 343.847 72.0497 343.847 70.912V70.7901H347.815C347.856 71.0203 347.978 72.1716 350.511 72.1716C353.043 72.1716 353.26 71.5892 353.26 71.1964C353.26 70.8172 353.016 70.4921 352.014 70.4921H348.641V68.0812H351.919C352.854 68.0812 353.057 67.8103 353.057 67.4988V67.4853C353.057 67.1331 352.881 66.7133 350.389 66.7133C347.897 66.7133 347.869 67.5666 347.842 67.7697H343.901V67.6343C343.901 66.6185 344.389 64.2482 350.077 64.2482H350.66C356.457 64.2482 357.039 65.7381 357.039 66.8487V66.93C357.039 67.9322 356.077 68.5011 355.265 68.6501C356.24 68.8668 357.405 69.5305 357.405 71.1152V71.21C357.405 72.8759 356.348 74.7044 350.876 74.7044Z" fill="#FFC3FF"/>
</svg>
