<svg width="363" height="194" viewBox="0 0 363 194" fill="none" xmlns="http://www.w3.org/2000/svg">
<path d="M38.648 82.0923V174.621C38.648 187.191 32.0026 194 20.6356 194H18.1873C6.2956 194 0 187.017 0 174.621V82.0923C0 69.6969 5.59609 62.3644 18.1873 62.3644H20.6356C33.2268 62.3644 38.648 70.0461 38.648 82.0923ZM21.3351 176.018V80.3465C21.3351 78.4261 20.6356 77.3785 19.4114 77.3785C18.1873 77.3785 17.4878 78.4261 17.4878 80.3465V176.018C17.4878 177.938 18.1873 178.811 19.4114 178.811C20.6356 178.811 21.3351 177.938 21.3351 176.018Z" fill="#47484A"/>
<path d="M41.4993 193.127V63.2373H69.6546V78.7752H58.1127V116.834H67.9058L68.0807 132.721H58.1127V193.127H41.4993Z" fill="#47484A"/>
<path d="M90.3394 193.127V78.7752H82.8196V63.2373H114.822V78.7752H107.128V193.127H90.3394Z" fill="#47484A"/>
<path d="M117.325 193.127V63.2373H134.463V116.311H137.961V63.2373H154.924V193.127H137.961V133.943H134.463V193.127H117.325Z" fill="#47484A"/>
<path d="M157.8 63.2373H186.305V78.7752H174.588V116.66H184.731V132.721H174.588V177.415H186.655V193.127H157.8V63.2373Z" fill="#47484A"/>
<path d="M226.734 193.127H206.798L198.754 63.2373H216.417L218.165 154.02L221.313 63.2373H237.227L240.375 152.1L242.299 63.2373H258.737L250.693 193.127H231.281L229.008 116.485L226.734 193.127Z" fill="#47484A"/>
<path d="M260.096 63.2373H288.602V78.7752H276.885V116.66H287.028V132.721H276.885V177.415H288.951V193.127H260.096V63.2373Z" fill="#47484A"/>
<path d="M291.349 63.2373H319.854V78.7752H308.137V116.66H318.28V132.721H308.137V177.415H320.204V193.127H291.349V63.2373Z" fill="#47484A"/>
<path d="M339.565 193.127H322.776V63.2373H339.565L339.39 112.295L344.986 63.2373H361.774L353.555 123.119L362.474 193.127H344.636L339.39 140.752L339.565 193.127Z" fill="#47484A"/>
<path d="M0 56.8878V0H62.7282C80.0378 0 84.3269 6.42281 84.3269 12.7692V13.2279C84.3269 19.6508 78.7357 23.3209 72.9914 24.5443C80.3441 25.7677 87.6969 29.5144 87.6969 39.6074V40.2191C87.6969 49.1651 81.493 56.8878 62.7282 56.8878H0ZM49.4779 14.7572H29.1046V20.2625H49.4779C53.0777 20.2625 54.6095 19.5743 54.6095 17.5098V17.3569C54.6095 15.216 53.0777 14.7572 49.4779 14.7572ZM50.6268 34.5609H29.1046V41.5954H50.6268C55.6052 41.5954 56.7541 40.1426 56.7541 38.0017V37.8487C56.7541 35.7078 55.6052 34.5609 50.6268 34.5609Z" fill="#47484A"/>
<path d="M119.458 22.7092H140.674C144.657 22.7092 145.959 21.18 145.959 19.1155C145.959 16.9746 144.58 15.5218 140.674 15.5218H119.458V22.7092ZM119.458 38.6898V56.8878H90.3537V0H153.312C165.566 0 175.753 3.05848 175.753 14.3749V15.063C175.753 23.5503 167.787 27.144 162.579 28.2145C171.693 29.9731 176.059 35.0961 176.059 42.5129V51.1531C176.059 53.9822 176.442 55.2821 177.055 56.429V56.8878H147.108C146.725 56.5055 146.725 55.9703 146.725 55.1292V48.2476C146.725 42.4365 143.891 38.6898 135.696 38.6898H119.458Z" fill="#47484A"/>
<path d="M179.959 0H212.817L239.624 25.8442V0H268.729V56.8878H239.088L209.064 28.4439V56.8878H179.959V0Z" fill="#47484A"/>
<path d="M273.454 56.8878V0H319.103C351.654 0 361.841 12.2339 361.841 26.9147V29.285C361.841 43.4305 354.105 56.8878 319.103 56.8878H273.454ZM302.559 17.6627V39.3015H314.201C330.668 39.3015 331.74 31.8082 331.74 28.4439V27.9851C331.74 24.6208 330.438 17.6627 314.201 17.6627H302.559Z" fill="#47484A"/>
</svg>
