<svg width="367" height="204" viewBox="0 0 367 204" fill="none" xmlns="http://www.w3.org/2000/svg">
<path d="M6.65641 83.1219V13.3925H0.35357V0.774775H26.7813V13.3925H20.4784V83.1219H6.65641Z" fill="white" fill-opacity="0.25"/>
<path d="M28.7587 83.1219V0.774775H42.8018V32.7618H45.7874V0.774775H59.72V83.1219H45.7874V47.2611H42.8018V83.1219H28.7587Z" fill="white" fill-opacity="0.25"/>
<path d="M61.9099 0.774775H85.5732V13.3925H75.6213V33.4259H84.0251V46.4863H75.6213V70.2829H85.9049V83.1219H61.9099V0.774775Z" fill="white" fill-opacity="0.25"/>
<path d="M96.5729 83.1219V0.774775H120.015V13.3925H110.284V33.5365H118.356L118.467 46.4863H110.284V83.1219H96.5729Z" fill="white" fill-opacity="0.25"/>
<path d="M134.736 56.2263L133.077 24.9034L131.418 56.2263H134.736ZM136.173 83.1219L135.399 68.2906H130.644L129.87 83.1219H117.817L124.673 0.774775H142.365L149.774 83.1219H136.173Z" fill="white" fill-opacity="0.25"/>
<path d="M164.824 11.1788V35.1968H165.93C166.925 35.1968 167.478 34.5327 167.478 33.3152V13.0604C167.478 11.7323 167.257 11.1788 166.041 11.1788H164.824ZM164.824 46.929V83.1219H150.781V0.774775H172.565C177.43 0.774775 181.3 3.87386 181.3 10.6254V29.9947C181.3 35.6395 178.646 37.8531 176.324 38.8493C178.646 39.8454 181.521 42.1697 181.521 46.4863V79.1374C181.521 80.7976 181.742 82.0151 182.185 82.7899V83.1219H168.363C167.81 82.3472 167.478 81.2403 167.478 79.6908V48.8106C167.478 47.5931 167.257 46.929 165.93 46.929H164.824Z" fill="white" fill-opacity="0.25"/>
<path d="M199.421 71.8324C200.637 71.8324 200.858 70.8363 200.858 69.5081V45.4902H214.57V69.8401C214.57 77.2558 210.478 83.8967 200.637 83.8967H198.426C187.81 83.8967 183.608 78.2519 183.608 68.512V14.942C183.608 6.30886 187.81 0 198.315 0H200.637C210.368 0 214.57 5.31272 214.57 13.3925V35.1968H200.858V13.8352C200.858 12.507 200.637 11.7323 199.421 11.7323C198.426 11.7323 197.983 12.3963 197.983 13.8352V69.5081C197.983 71.0576 198.426 71.8324 199.421 71.8324Z" fill="white" fill-opacity="0.25"/>
<path d="M232.03 56.2263L230.371 24.9034L228.712 56.2263H232.03ZM233.467 83.1219L232.693 68.2906H227.938L227.164 83.1219H215.111L221.967 0.774775H239.659L247.068 83.1219H233.467Z" fill="white" fill-opacity="0.25"/>
<path d="M264.772 83.8967H261.565C252.388 83.8967 247.854 79.6908 247.854 71.1683V49.5854H261.565V70.1722C261.565 71.611 262.008 72.3858 263.003 72.3858C263.998 72.3858 264.551 71.611 264.551 70.0615V54.0127C264.551 51.3563 264.219 50.2495 262.118 48.3679L254.931 42.1697C250.176 38.1852 248.186 33.6472 248.186 27.4491V12.8391C248.186 5.20204 252.166 0 262.229 0H265.436C275.498 0 278.705 5.09136 278.705 11.7323V29.8841H265.214V12.3963C265.214 11.1788 264.772 10.6254 263.777 10.6254C262.782 10.6254 262.339 11.1788 262.339 12.3963V26.4529C262.339 28.6666 262.782 29.4413 264.551 31.1015L271.628 37.2997C277.157 41.9484 279.258 45.6008 279.258 52.9058V69.2867C279.258 78.1413 274.945 83.8967 264.772 83.8967Z" fill="white" fill-opacity="0.25"/>
<path d="M286.768 83.1219V13.3925H280.465V0.774775H306.893V13.3925H300.59V83.1219H286.768Z" fill="white" fill-opacity="0.25"/>
<path d="M308.87 0.774775H332.534V13.3925H322.582V33.4259H330.986V46.4863H322.582V70.2829H332.865V83.1219H308.87V0.774775Z" fill="white" fill-opacity="0.25"/>
<path d="M348.938 11.1788V35.1968H350.044C351.039 35.1968 351.592 34.5327 351.592 33.3152V13.0604C351.592 11.7323 351.371 11.1788 350.154 11.1788H348.938ZM348.938 46.929V83.1219H334.895V0.774775H356.678C361.544 0.774775 365.414 3.87386 365.414 10.6254V29.9947C365.414 35.6395 362.76 37.8531 360.438 38.8493C362.76 39.8454 365.635 42.1697 365.635 46.4863V79.1374C365.635 80.7976 365.856 82.0151 366.298 82.7899V83.1219H352.476C351.923 82.3472 351.592 81.2403 351.592 79.6908V48.8106C351.592 47.5931 351.371 46.929 350.044 46.929H348.938Z" fill="white" fill-opacity="0.25"/>
<path d="M36.1515 188.282C36.1515 197.573 30.7777 204 19.332 204H16.8195C4.88534 204 0 197.503 0 188.282V166.207C0 156.427 4.88534 150.489 16.8195 150.489H19.332C30.8475 150.489 36.1515 156.357 36.1515 166.207V188.282ZM21.2164 166.487C21.2164 164.042 20.3789 162.575 18.0758 162.575C15.7727 162.575 14.9352 163.972 14.9352 166.487V188.142C14.9352 190.587 15.8425 191.845 18.0758 191.845C20.1695 191.845 21.2164 190.587 21.2164 188.142V166.487Z" fill="white" fill-opacity="0.25"/>
<path d="M41.9932 151.258H69.072V163.343H56.0909V170.259H67.0481V182.554H56.0909V203.232H41.9932V151.258Z" fill="white" fill-opacity="0.25"/>
<path d="M93.333 163.064H85.1675V151.258H115.457V163.064H107.291V203.232H93.333V163.064Z" fill="white" fill-opacity="0.25"/>
<path d="M120.235 151.258H135.031V169.002H141.033V151.258H155.828V203.232H141.033V183.322H135.031V203.232H120.235V151.258Z" fill="white" fill-opacity="0.25"/>
<path d="M189.44 151.258V163.343H176.18V170.259H187.556V182.554H176.18V191.007H189.789V203.232H162.082V151.258H189.44Z" fill="white" fill-opacity="0.25"/>
<path d="M234.062 184.719C233.294 178.642 233.015 175.359 232.806 172.564C232.596 175.359 232.178 178.712 231.549 184.65L229.456 203.232H214.172L205.238 151.258H219.825L222.337 173.822C222.895 179.131 223.175 183.252 223.384 185.418C223.593 183.252 223.873 179.131 224.501 173.822L227.222 151.258H239.226L241.948 173.612C242.576 179.201 242.925 183.252 243.135 185.278C243.344 183.252 243.623 179.061 244.182 173.822L246.694 151.258H260.373L251.44 203.232H236.156L234.062 184.719Z" fill="white" fill-opacity="0.25"/>
<path d="M291.741 151.258V163.343H278.48V170.259H289.856V182.554H278.48V191.007H292.09V203.232H264.383V151.258H291.741Z" fill="white" fill-opacity="0.25"/>
<path d="M324.659 151.258V163.343H311.399V170.259H322.775V182.554H311.399V191.007H325.008V203.232H297.302V151.258H324.659Z" fill="white" fill-opacity="0.25"/>
<path d="M330.22 203.232V151.258H344.527V171.377L352.274 151.258H366.791L357.508 174.171L367 203.232H351.925L344.527 180.458V203.232H330.22Z" fill="white" fill-opacity="0.25"/>
<path d="M4.61212 145.152V88.1356H67.3165C84.6195 88.1356 88.907 94.573 88.907 100.934V101.393C88.907 107.831 83.3179 111.509 77.5758 112.735C84.9257 113.962 92.2757 117.717 92.2757 127.833V128.446C92.2757 137.412 86.0742 145.152 67.3165 145.152H4.61212ZM54.0712 102.926H33.7057V108.444H54.0712C57.6696 108.444 59.2009 107.754 59.2009 105.685V105.532C59.2009 103.386 57.6696 102.926 54.0712 102.926ZM55.2196 122.775H33.7057V129.825H55.2196C60.1962 129.825 61.3446 128.369 61.3446 126.223V126.07C61.3446 123.924 60.1962 122.775 55.2196 122.775Z" fill="white" fill-opacity="0.25"/>
<path d="M124.025 110.896H145.233C149.214 110.896 150.515 109.364 150.515 107.294C150.515 105.149 149.137 103.693 145.233 103.693H124.025V110.896ZM124.025 126.913V145.152H94.9314V88.1356H157.865C170.115 88.1356 180.298 91.201 180.298 102.543V103.233C180.298 111.739 172.336 115.341 167.129 116.414C176.24 118.177 180.604 123.311 180.604 130.745V139.405C180.604 142.24 180.987 143.543 181.6 144.692V145.152H151.664C151.281 144.769 151.281 144.233 151.281 143.39V136.492C151.281 130.668 148.448 126.913 140.256 126.913H124.025Z" fill="white" fill-opacity="0.25"/>
<path d="M184.503 88.1356H217.348L244.145 114.038V88.1356H273.238V145.152H243.609L213.597 116.644V145.152H184.503V88.1356Z" fill="white" fill-opacity="0.25"/>
<path d="M277.963 145.152V88.1356H323.594C356.132 88.1356 366.315 100.397 366.315 115.111V117.487C366.315 131.664 358.582 145.152 323.594 145.152H277.963ZM307.056 105.838V127.526H318.694C335.154 127.526 336.226 120.016 336.226 116.644V116.184C336.226 112.812 334.925 105.838 318.694 105.838H307.056Z" fill="white" fill-opacity="0.25"/>
</svg>
