<svg width="116" height="28" viewBox="0 0 116 28" fill="none" xmlns="http://www.w3.org/2000/svg">
<path d="M26.6948 19.837C25.8832 24.4347 21.737 27.9967 15.7373 27.9967H0.501007L5.43661 0.00299072H19.754C25.7127 0.00299072 28.4852 3.32181 27.7968 7.24061C27.2253 10.4805 25.1001 12.3183 23.3854 13.1993C24.8664 13.8783 27.3768 15.9592 26.6948 19.837ZM13.1889 6.40064L12.4121 10.7994H15.6899C17.1299 10.7994 18.2572 9.83946 18.4782 8.59846C18.6993 7.35745 17.9067 6.39749 16.4667 6.39749H13.1889V6.40064ZM14.6289 21.5959C16.2299 21.5959 17.4993 20.5159 17.7456 19.117C17.9919 17.7181 17.1109 16.5971 15.5099 16.5971H11.3922L10.5112 21.5959H14.6289Z" fill="white"/>
<path d="M43.9299 27.9967L40.5732 19.597H38.7733L37.2923 27.9967H28.4157L33.3513 0.00299072H46.7498C53.2295 0.00299072 56.6873 4.20283 55.6989 9.80157C55.0989 13.1993 52.8538 15.9592 49.4718 17.6802L53.6906 27.9967H43.9299ZM40.5921 7.00062L39.569 12.7983H43.0489C44.8899 12.7983 46.3014 11.5983 46.6045 9.87735C46.9014 8.19742 45.913 6.99746 44.072 6.99746H40.5921V7.00062Z" fill="white"/>
<path d="M78.937 0H87.6146L82.679 27.9937H74.1214L67.5122 13.3163L64.9228 27.9937H56.2452L61.1808 0H69.7005L76.3508 14.6773L78.9402 0H78.937Z" fill="white"/>
<path d="M87.1567 27.9967L92.0923 0.00299072H103.091C111.73 0.00299072 116.669 6.00276 115.261 14.0014C113.849 22 106.795 27.9998 98.1552 27.9998H87.1567V27.9967ZM97.41 20.197H99.5288C102.649 20.197 105.753 17.5571 106.381 13.9983C107.003 10.4805 104.834 7.79954 101.714 7.79954H99.5951L97.41 20.197Z" fill="white"/>
</svg>
